
<svg xmlns="http://www.w3.org/2000/svg" xmlns:xlink="http://www.w3.org/1999/xlink" width="32" height="32">
	<path transform="scale(1.12152 1.12152)" d="M247.004 114.493L296.498 114.488C307.752 114.487 319.421 113.868 330.616 115C400.745 122.087 454.251 184.922 454.262 254.938C454.272 323.408 398.825 386.325 330.247 392.896C320.229 393.856 309.413 393.263 299.301 393.249L247.004 393.249L247.004 341.249L293.307 341.244C325.53 341.241 349.051 341.742 374.672 316.654C408.791 283.245 410.991 227.136 377.057 192.942C350.322 166.001 329.303 166.732 295.365 166.751L247.004 166.752L247.004 114.493Z"/>
	<path transform="scale(1.12152 1.12152)" d="M190.955 114.493C201.259 112.504 212.9 119.987 217.441 128.879C222.249 138.294 220.241 157.641 220.24 168.094L220.241 283.137C220.241 296.386 220.581 309.696 219.729 322.922C216.486 373.277 160.888 405.568 114.248 389.525C91.5015 381.702 75.8529 365.384 65.486 344.146C58.0727 328.138 58.2299 314.199 58.2298 297.266L58.2395 270.75C75.6542 270.751 93.0895 270.562 110.501 270.75L110.504 295.523C110.5 301.375 110.338 307.29 110.839 313.125C113.616 345.458 155.355 352.17 165.515 321.434C167.546 315.29 166.816 307.909 166.814 301.495L166.783 152.594C166.745 135.348 167.758 116.455 190.955 114.493Z"/>
	<path transform="scale(1.12152 1.12152)" d="M247.004 191.501L300.199 191.501L300.194 277.029C300.199 290.634 299.974 304.277 300.199 317.877L247.004 317.877L247.004 191.501Z"/>
</svg>
